<svg width="223" height="41" viewBox="0 0 223 41" fill="none" xmlns="http://www.w3.org/2000/svg">
<path d="M2.44141 14.5151C2.44141 23.6208 2.45188 25.9585 2.4868 25.9906C2.52172 26.0226 3.08388 26.3606 3.64604 26.6845C3.72286 26.7307 3.92887 26.8517 4.09996 26.9549C4.27455 27.0545 4.47706 27.1755 4.55389 27.2182C4.6307 27.2645 4.94496 27.4459 5.25222 27.6274C5.55949 27.8089 5.88073 27.9975 5.96453 28.0473C6.05182 28.0971 6.20196 28.1825 6.29624 28.243C6.39401 28.3035 6.61748 28.4316 6.78857 28.5347C7.72784 29.0863 8.80326 29.7161 8.97089 29.8157C9.07565 29.8798 9.32705 30.0257 9.52954 30.1431C9.73208 30.2605 10.3291 30.6128 10.8564 30.9259C11.3836 31.239 11.8864 31.5344 11.9738 31.5842C12.061 31.634 12.3823 31.8226 12.6896 32.0041C13.3006 32.3671 13.8453 32.6837 14.0338 32.794C14.1002 32.8332 14.3516 32.9826 14.5925 33.1249C14.8335 33.2673 15.242 33.5057 15.5004 33.6587C17.3614 34.7511 17.9969 35.1247 18.5556 35.4556C18.7302 35.5588 18.9327 35.6762 19.0095 35.7225C19.2609 35.8648 20.0849 36.3488 20.3887 36.5338C20.5528 36.6299 20.7554 36.7509 20.8427 36.8007C21.122 36.9608 21.2058 37.0071 21.5445 37.2134C21.7295 37.3237 21.8971 37.4127 21.9181 37.4127C21.9495 37.4127 21.96 34.6408 21.96 25.9799C21.96 19.6959 21.946 14.5329 21.9321 14.5151C21.9111 14.4831 21.5235 14.2447 20.8601 13.8568C20.8042 13.8248 20.5913 13.7002 20.3887 13.5828C20.1862 13.4654 19.6205 13.1309 19.1317 12.8427C18.6429 12.5545 18.1855 12.2876 18.1191 12.2485C17.8712 12.1026 16.1742 11.1063 15.9543 10.9746C15.4061 10.6508 14.177 9.92488 14.0338 9.84305C13.9466 9.79678 13.7894 9.7043 13.6847 9.64023C13.4438 9.49437 12.2217 8.772 12.0017 8.64748C11.9109 8.59768 11.663 8.45177 11.45 8.32367C11.237 8.19558 11.0554 8.0924 11.0519 8.0924C11.0449 8.0924 10.9018 8.00698 10.7307 7.90381C10.5596 7.80059 10.3327 7.66537 10.2279 7.60488C10.1231 7.54439 9.93808 7.43768 9.81936 7.36649C9.31309 7.07114 9.15595 6.97508 9.0058 6.88967C8.91851 6.83987 8.57285 6.63705 8.23763 6.43777C7.57768 6.04636 6.70826 5.53396 5.98548 5.11052C5.73757 4.96465 5.43728 4.78673 5.32206 4.71913C5.20683 4.65152 5.05669 4.56612 4.99035 4.52698C4.924 4.48784 4.41422 4.18538 3.85554 3.85802C2.60552 3.12145 2.52521 3.0752 2.47981 3.0752C2.45188 3.0752 2.44141 6.49826 2.44141 14.5151Z" fill="#FE6601"/>
<path d="M42.9408 14.5151C42.9408 23.6208 42.9306 25.9585 42.8965 25.9906C42.8625 26.0226 42.3144 26.3607 41.7663 26.6845C41.6914 26.7307 41.4905 26.8517 41.3237 26.9549C41.1535 27.0545 40.956 27.1755 40.8811 27.2182C40.8062 27.2645 40.4998 27.4459 40.2002 27.6274C39.9007 27.8089 39.5874 27.9975 39.5057 28.0473C39.4206 28.0971 39.2743 28.1825 39.1823 28.243C39.087 28.3035 38.8691 28.4316 38.7023 28.5347C37.7865 29.0863 36.7379 29.7161 36.5745 29.8157C36.4724 29.8798 36.2273 30.0257 36.0299 30.1431C35.8324 30.2605 35.2502 30.6128 34.7362 30.9259C34.2221 31.239 33.7318 31.5344 33.6467 31.5842C33.5616 31.634 33.2484 31.8226 32.9489 32.0041C32.3531 32.3671 31.822 32.6837 31.6382 32.794C31.5735 32.8332 31.3284 32.9826 31.0934 33.125C30.8585 33.2673 30.4602 33.5057 30.2083 33.6587C28.3938 34.7511 27.7742 35.1247 27.2295 35.4557C27.0592 35.5588 26.8618 35.6762 26.7869 35.7225C26.5418 35.8648 25.7383 36.3488 25.4421 36.5338C25.2821 36.6299 25.0847 36.7509 24.9996 36.8007C24.7272 36.9608 24.6455 37.0071 24.3153 37.2134C24.1349 37.3237 23.9714 37.4127 23.951 37.4127C23.9204 37.4127 23.9102 34.6408 23.9102 25.9799C23.9102 19.696 23.9238 14.5329 23.9374 14.5151C23.9578 14.4831 24.3357 14.2447 24.9825 13.8568C25.037 13.8248 25.2447 13.7002 25.4421 13.5828C25.6396 13.4654 26.1911 13.1309 26.6677 12.8427C27.1443 12.5545 27.5903 12.2876 27.655 12.2485C27.8967 12.1026 29.5512 11.1063 29.7657 10.9746C30.3002 10.6508 31.4986 9.92488 31.6382 9.84305C31.7233 9.79678 31.8765 9.7043 31.9786 9.64023C32.2135 9.49437 33.4051 8.772 33.6195 8.64748C33.708 8.59768 33.9497 8.45177 34.1574 8.32368C34.3651 8.19558 34.5421 8.0924 34.5455 8.0924C34.5523 8.0924 34.6919 8.00699 34.8587 7.90381C35.0255 7.80059 35.2468 7.66537 35.349 7.60488C35.4511 7.54439 35.6315 7.43768 35.7473 7.36649C36.2409 7.07115 36.3941 6.97508 36.5405 6.88967C36.6256 6.83987 36.9626 6.63705 37.2895 6.43777C37.9329 6.04636 38.7806 5.53396 39.4853 5.11056C39.727 4.96465 40.0198 4.78673 40.1321 4.71913C40.2445 4.65152 40.3909 4.56612 40.4556 4.52698C40.5203 4.48784 41.0173 4.18538 41.562 3.85802C42.7808 3.12146 42.8591 3.0752 42.9033 3.0752C42.9306 3.0752 42.9408 6.49826 42.9408 14.5151Z" fill="#FE6601"/>
<path d="M55.6289 29.725V10.25H62.4591C64.214 10.25 65.5626 10.7044 66.505 11.6133C67.4474 12.5035 67.9189 13.7277 67.9189 15.2857C67.9189 16.3429 67.7302 17.2332 67.3534 17.9565C66.9906 18.6799 66.498 19.2363 65.8742 19.6258C65.2505 20.0153 64.5761 20.2101 63.8513 20.2101L64.2428 19.3754C65.1129 19.3754 65.8813 19.5702 66.5485 19.9597C67.2158 20.3492 67.7449 20.9242 68.1364 21.6846C68.528 22.4265 68.7238 23.3539 68.7238 24.4668C68.7238 26.136 68.2305 27.4344 67.2446 28.3618C66.2728 29.2706 64.823 29.725 62.8942 29.725H55.6289ZM57.8041 27.4715H62.8071C64.0106 27.4715 64.9318 27.2118 65.5697 26.6925C66.2076 26.1731 66.5268 25.357 66.5268 24.2442C66.5268 23.1128 66.2076 22.2874 65.5697 21.7681C64.9318 21.2487 64.0106 20.9891 62.8071 20.9891H57.6084V18.7355H62.2633C63.3656 18.7355 64.221 18.4759 64.8301 17.9565C65.4392 17.4372 65.7437 16.6582 65.7437 15.6195C65.7437 14.5809 65.4392 13.8019 64.8301 13.2825C64.221 12.7632 63.3656 12.5035 62.2633 12.5035H57.8041V27.4715ZM77.0946 29.725V19.9875V10.25H79.2698V29.725H77.0946ZM88.8315 29.725V10.25H91.0067V27.3045H99.2508V29.725H88.8315ZM106.75 29.725V10.25H108.925V29.725H106.75ZM118.487 29.725V10.25H120.271L127.101 24.9675H126.144L132.887 10.25H134.671L134.692 29.725H132.604L132.582 14.451H133.083L127.079 27.3602H126.078L120.031 14.451H120.575V29.725H118.487ZM146.179 25.0232L146.07 21.629L154.706 10.25H157.186L150.508 19.2641L149.29 20.9891L146.179 25.0232ZM144.265 29.725V10.25H146.44V29.725H144.265ZM155.054 29.725L148.811 20.4326L150.269 18.3739L157.599 29.725H155.054ZM161.98 29.725L168.876 10.25H171.029L177.947 29.725H175.663L169.507 11.808H170.377L164.221 29.725H161.98ZM164.917 24.8563L165.504 22.6305H174.075L174.706 24.8563H164.917ZM185.221 29.725V10.25H187.005L197.076 26.2473H196.141V10.25H198.316V29.725H196.532L186.461 13.7277H187.396V29.725H185.221ZM205.571 29.725L212.466 10.25H214.62L221.537 29.725H219.253L213.097 11.808H213.967L207.811 29.725H205.571ZM208.507 24.8563L209.095 22.6305H217.665L218.296 24.8563H208.507Z" fill="#FE6601"/>
</svg>
